<svg xmlns="http://www.w3.org/2000/svg" width="32" height="32" id="swastik">
  <path fill-rule="evenodd" d="M4.25 2.5c-.316 0-.607.052-.875.121a.5.5 0 0 0 0 .969A2.479 2.479 0 0 1 5.25 6v9.502l.008-.084a2.004 2.004 0 0 0 .572 1.762l.006.01a.5.5 0 0 0 .014.013c.007.01.014.014.021.02h.002a2.002 2.002 0 0 0 1.691.525l-.08.01h6.766v5H6.5c-1.93 0-3.5 1.57-3.5 3.5v1.5c0 .316.052.608.121.875a.5.5 0 0 0 .969 0 2.479 2.479 0 0 1 2.41-1.875h9.744a2.01 2.01 0 0 0 2-2.322l.006.08v-6.758h5v7.75c0 1.93 1.57 3.5 3.5 3.5h1.5c.316 0 .61-.052.877-.121a.5.5 0 0 0-.002-.969 2.479 2.479 0 0 1-1.875-2.41v-9.504l-.006.082a2 2 0 0 0-.652-1.826 1.999 1.999 0 0 0-1.371-.522.5.5 0 0 0-.006 0c-.068 0-.134.012-.201.02H18.25v-5H26c1.93 0 3.5-1.57 3.5-3.5v-1.5c0-.317-.052-.607-.121-.873a.5.5 0 0 0-.969 0A2.477 2.477 0 0 1 26 4.758h-9.506l.082.01a2.007 2.007 0 0 0-1.703.527 2.001 2.001 0 0 0-.615 1.785L14.25 7v6.76h-5V6.01c0-1.93-1.57-3.5-3.5-3.5H4.727l.023.474a.5.5 0 0 0-.5-.474V2.5zm.723 1h.777c1.394 0 2.5 1.106 2.5 2.5v8.25a.5.5 0 0 0 .5.5h6a.5.5 0 0 0 .5-.5V6.99a.5.5 0 0 0-.006-.08.999.999 0 0 1 .309-.894.5.5 0 0 0 .008-.01 1 1 0 0 1 .851-.266.5.5 0 0 0 .082.01H26c1.044 0 1.861-.55 2.5-1.277v.777c0 1.394-1.106 2.5-2.5 2.5h-8.25a.5.5 0 0 0-.5.5v6a.5.5 0 0 0 .5.5h7.266a.5.5 0 0 0 .082-.01c.045-.01.09-.011.136-.013.255 0 .502.09.69.261a.5.5 0 0 0 .006.01 1 1 0 0 1 .328.916.5.5 0 0 0-.008.082V25.5c0 1.044.552 1.861 1.28 2.5h-.78a2.484 2.484 0 0 1-2.5-2.5v-8.25a.5.5 0 0 0-.5-.5h-6a.5.5 0 0 0-.5.5v7.258a.5.5 0 0 0 .008.08.99.99 0 0 1-1 1.162.5.5 0 0 0-.008 0H6.5c-1.044 0-1.861.55-2.5 1.277v-.777c0-1.394 1.106-2.5 2.5-2.5h8.25a.5.5 0 0 0 .5-.5v-6a.5.5 0 0 0-.5-.5H7.484a.5.5 0 0 0-.078.01.998.998 0 0 1-.845-.262.5.5 0 0 0-.008-.01H6.55l-.014-.013a.5.5 0 0 0-.01-.01 1 1 0 0 1-.285-.881.5.5 0 0 0 .008-.082V6c0-1.044-.55-1.861-1.277-2.5zm6.777 5.75c-1.099 0-2 .901-2 2s.901 2 2 2 2-.901 2-2-.901-2-2-2zm9 0c-1.099 0-2 .901-2 2s.901 2 2 2 2-.901 2-2-.901-2-2-2zm-9 1c.558 0 1 .442 1 1s-.442 1-1 1-1-.442-1-1 .442-1 1-1zm9 0c.558 0 1 .442 1 1s-.442 1-1 1-1-.442-1-1 .442-1 1-1zm-9 8c-1.099 0-2 .901-2 2s.901 2 2 2 2-.901 2-2-.901-2-2-2zm9 0c-1.099 0-2 .901-2 2s.901 2 2 2 2-.901 2-2-.901-2-2-2zm-9 1c.558 0 1 .442 1 1s-.442 1-1 1-1-.442-1-1 .442-1 1-1zm9 0c.558 0 1 .442 1 1s-.442 1-1 1-1-.442-1-1 .442-1 1-1z" color="#000" font-family="sans-serif" font-weight="400" overflow="visible" style="line-height:normal;text-indent:0;text-align:start;text-decoration-line:none;text-decoration-style:solid;text-decoration-color:#000;text-transform:none;block-progression:tb;isolation:auto;mix-blend-mode:normal"></path>
</svg>
